<?xml version="1.0" encoding="UTF-8" standalone="no"?>
<svg width="226px" height="60px" viewBox="0 0 226 60" version="1.1" xmlns="http://www.w3.org/2000/svg" xmlns:xlink="http://www.w3.org/1999/xlink">
    <!-- Generator: Sketch 40.2 (33826) - http://www.bohemiancoding.com/sketch -->
    <title>logo-divinity</title>
    <desc>Created with Sketch.</desc>
    <defs></defs>
    <g id="Page-1" stroke="none" stroke-width="1" fill="none" fill-rule="evenodd">
        <g id="logo-divinity" transform="translate(0.000000, 0.000000)" fill="#FFFFFF">
            <path d="M9.79236284,30.4643315 C9.79236284,37.3543223 10.0371883,41.3666026 10.5268392,42.500522 C11.5067955,44.8106227 13.3017456,45.9659982 15.9129988,45.9659982 C18.034601,45.9659982 20.1156172,45.2169872 22.1560474,43.7170147 C22.0742207,42.986859 22.0336347,42.2176923 22.0336347,41.4075641 L22.0336347,17.2122985 C20.0337905,15.7532875 17.994015,15.0237821 15.9129988,15.0237821 C13.260505,15.0237821 11.4655549,16.1791575 10.5268392,18.4886081 C10.0371883,19.7863736 9.79236284,23.777848 9.79236284,30.4643315 L9.79236284,30.4643315 L9.79236284,30.4643315 Z M31.8259975,4.99405678 L31.8259975,41.467381 C31.8259975,44.3054304 33.4579489,45.7228297 36.7225062,45.7228297 L36.7225062,46.3307509 L24.481889,46.3307509 C24.0734102,46.3307509 23.6145262,46.0069597 23.1045823,45.3580769 C22.5946384,44.7098443 22.3190461,44.3854029 22.2784601,44.3854029 C20.0750312,45.8444139 17.9527743,46.5739194 15.9129988,46.5739194 C11.0983167,46.5739194 7.24198878,45.1461172 4.34532419,42.2885623 C1.44800499,39.4310073 0,35.4902473 0,30.4643315 C0,25.4390659 1.43818579,21.5087088 4.31455736,18.6713095 C7.19158354,15.8345604 11.0577307,14.4158608 15.9129988,14.4158608 C17.9527743,14.4158608 19.9932045,15.0848993 22.0336347,16.422326 L22.0336347,4.99405678 C22.0336347,2.15665751 20.4010287,0.738608059 17.1371259,0.738608059 L17.1371259,0.130686813 L29.3777431,0.130686813 C31.0103491,0.130686813 31.8259975,1.75159341 31.8259975,4.99405678 L31.8259975,4.99405678 L31.8259975,4.99405678 Z" id="Fill-1"></path>
            <path d="M42.9354426,8.42832418 C41.9764339,7.47645604 41.4972569,6.33083333 41.4972569,4.99405678 C41.4972569,3.65663004 41.9764339,2.51165751 42.9354426,1.55848901 C43.8944514,0.606620879 45.0472257,0.130686813 46.3937656,0.130686813 C47.7403055,0.130686813 48.8924252,0.606620879 49.8520885,1.55848901 C50.8104426,2.51165751 51.2902743,3.65663004 51.2902743,4.99405678 C51.2902743,6.33083333 50.8104426,7.47645604 49.8520885,8.42832418 C48.8924252,9.38084249 47.7403055,9.85677656 46.3937656,9.85677656 C45.0472257,9.85677656 43.8944514,9.38084249 42.9354426,8.42832418 L42.9354426,8.42832418 L42.9354426,8.42832418 Z M36.6014027,14.7201465 L48.84202,14.7201465 C50.4739713,14.7201465 51.2902743,16.3417033 51.2902743,19.5828663 L51.2902743,41.467381 C51.2902743,44.3054304 52.9222257,45.7228297 56.1861284,45.7228297 L56.1861284,46.3307509 L36.6014027,46.3307509 L36.6014027,45.7228297 C39.8653055,45.7228297 41.4972569,44.3054304 41.4972569,41.467381 L41.4972569,19.5828663 C41.4972569,16.7461172 39.8653055,15.3280678 36.6014027,15.3280678 L36.6014027,14.7201465 L36.6014027,14.7201465 L36.6014027,14.7201465 Z" id="Fill-2"></path>
            <path d="M69.2063903,19.2200641 L76.3233479,36.6053114 L83.3931733,19.2356685 C83.6576372,18.5438736 83.7905237,17.8923901 83.7905237,17.2818681 C83.7905237,15.9795513 82.5971633,15.3280678 80.2104426,15.3280678 L80.2104426,14.7201465 L88.1234102,14.7201465 L88.1234102,15.3280678 C86.3683915,15.3690293 84.9812656,16.7461172 83.9613778,19.4619322 L73.1281796,46.3307509 L71.15452,46.3307509 C70.4141521,46.3307509 69.8590399,46.1122894 69.4885287,45.6727656 C69.4466334,45.5921429 68.9386534,44.3229853 67.9645885,41.8659432 L58.9904925,19.4619322 C58.1741895,17.4353114 57.4397132,16.2396245 56.786409,15.8748718 C56.2149314,15.510119 55.2362843,15.3280678 53.8485037,15.3280678 L53.8485037,14.7201465 L65.4750935,14.7201465 C66.8615648,14.7201465 68.1053304,16.220119 69.2063903,19.2200641" id="Fill-3"></path>
            <path d="M95.7149626,8.42832418 C94.7559539,7.47645604 94.2774314,6.33083333 94.2774314,4.99405678 C94.2774314,3.65663004 94.7559539,2.51165751 95.7149626,1.55848901 C96.6739713,0.606620879 97.8267456,0.130686813 99.1732855,0.130686813 C100.519825,0.130686813 101.671945,0.606620879 102.630954,1.55848901 C103.589963,2.51165751 104.06914,3.65663004 104.06914,4.99405678 C104.06914,6.33083333 103.589963,7.47645604 102.630954,8.42832418 C101.671945,9.38084249 100.519825,9.85677656 99.1732855,9.85677656 C97.8267456,9.85677656 96.6739713,9.38084249 95.7149626,8.42832418 L95.7149626,8.42832418 L95.7149626,8.42832418 Z M89.3802681,14.7201465 L101.620885,14.7201465 C103.252837,14.7201465 104.06914,16.3417033 104.06914,19.5828663 L104.06914,41.467381 C104.06914,44.3054304 105.701091,45.7228297 108.965648,45.7228297 L108.965648,46.3307509 L89.3802681,46.3307509 L89.3802681,45.7228297 C92.6441708,45.7228297 94.2774314,44.3054304 94.2774314,41.467381 L94.2774314,19.5828663 C94.2774314,16.7461172 92.6441708,15.3280678 89.3802681,15.3280678 L89.3802681,14.7201465 L89.3802681,14.7201465 L89.3802681,14.7201465 Z" id="Fill-4"></path>
            <path d="M123.596259,19.5828663 L123.596259,41.467381 C123.596259,44.3054304 125.228211,45.7228297 128.492768,45.7228297 L128.492768,46.3307509 L108.907388,46.3307509 L108.907388,45.7228297 C112.171291,45.7228297 113.803897,44.3054304 113.803897,41.467381 L113.803897,19.5828663 C113.803897,16.7461172 112.171291,15.3280678 108.907388,15.3280678 L108.907388,14.7201465 L121.148005,14.7201465 C121.515243,14.7201465 121.953834,15.034185 122.463778,15.6622619 C122.973722,16.2903388 123.269607,16.6043773 123.351434,16.6043773 C125.554863,15.1453663 127.676465,14.4158608 129.716895,14.4158608 C140.324906,14.4158608 145.629894,18.1648168 145.629894,25.6620788 L145.629894,41.467381 C145.629894,44.3054304 147.261845,45.7228297 150.525748,45.7228297 L150.525748,46.3307509 L130.941022,46.3307509 L130.941022,45.7228297 C134.204925,45.7228297 135.837531,44.3054304 135.837531,41.467381 L135.837531,26.27 C135.837531,18.7727381 133.797101,15.0237821 129.716895,15.0237821 C127.594638,15.0237821 125.513622,15.7740934 123.473847,17.2727656 C123.555673,18.0022711 123.596259,18.7727381 123.596259,19.5828663" id="Fill-5"></path>
            <path d="M156.614308,8.42832418 C155.654645,7.47645604 155.176122,6.33083333 155.176122,4.99405678 C155.176122,3.65663004 155.654645,2.51165751 156.614308,1.55848901 C157.572662,0.606620879 158.725436,0.130686813 160.071322,0.130686813 C161.417862,0.130686813 162.571291,0.606620879 163.530299,1.55848901 C164.488653,2.51165751 164.968485,3.65663004 164.968485,4.99405678 C164.968485,6.33083333 164.488653,7.47645604 163.530299,8.42832418 C162.571291,9.38084249 161.417862,9.85677656 160.071322,9.85677656 C158.725436,9.85677656 157.572662,9.38084249 156.614308,8.42832418 L156.614308,8.42832418 L156.614308,8.42832418 Z M150.278959,14.7201465 L162.520231,14.7201465 C164.152182,14.7201465 164.968485,16.3417033 164.968485,19.5828663 L164.968485,41.467381 C164.968485,44.3054304 166.600436,45.7228297 169.864339,45.7228297 L169.864339,46.3307509 L150.278959,46.3307509 L150.278959,45.7228297 C153.543516,45.7228297 155.176122,44.3054304 155.176122,41.467381 L155.176122,19.5828663 C155.176122,16.7461172 153.543516,15.3280678 150.278959,15.3280678 L150.278959,14.7201465 L150.278959,14.7201465 L150.278959,14.7201465 Z" id="Fill-6"></path>
            <path d="M174.680985,31.4376557 L174.680985,19.5828663 C174.680985,16.7461172 173.048379,15.3280678 169.783822,15.3280678 L169.783822,14.7201465 L172.476901,14.7201465 C176.394108,14.7201465 178.352712,11.8833974 178.352712,6.20924908 L184.474002,6.20924908 L184.474002,14.7201465 L193.042238,14.7201465 L193.042238,15.3280678 L184.474002,15.3280678 L184.474002,31.4376557 L184.474002,39.8263187" id="Fill-7"></path>
            <path d="M206.656234,19.2200641 L213.748971,36.5454945 L220.799813,19.2187637 C221.104863,18.5094139 221.256733,17.8611813 221.256733,17.2727656 C221.256733,15.9763004 220.043734,15.3280678 217.617737,15.3280678 L217.617737,14.7201465 L225.614495,14.7201465 L225.614495,15.3280678 C223.860131,15.3690293 222.473005,16.7519689 221.453117,19.4781868 L214.167269,37.4707051 L210.744296,46.04337 L207.255206,54.6153846 C205.827494,57.602326 204.07313,59.0970971 201.992113,59.0970971 C200.646228,59.0970971 199.492799,58.6205128 198.533791,57.6679945 C197.574782,56.7154762 197.096259,55.5705037 197.096259,54.2330769 C197.096259,52.8956502 197.564963,51.7513278 198.503024,50.7988095 C199.441739,49.8462912 200.58404,49.3710073 201.931234,49.3710073 C203.175,49.3710073 204.297662,49.7962271 205.296602,50.6466667 C206.154146,51.3768223 206.806796,51.7409249 207.255206,51.7409249 C207.560256,51.7409249 207.771041,51.5790293 207.885599,51.2545879 L208.562469,49.8176832 L207.895418,48.0043223 L206.939027,45.6727656 C206.897132,45.5921429 205.415087,41.8659432 205.415087,41.8659432 L196.440337,19.4619322 C195.644327,17.4964286 194.910505,16.3000916 194.236908,15.8748718 C193.66543,15.510119 192.686783,15.3280678 191.298348,15.3280678 L191.298348,14.7201465 L202.924938,14.7201465 C204.311409,14.7201465 205.555829,16.220119 206.656234,19.2200641" id="Fill-8"></path>
            <path d="M184.453709,19.5880678 L184.453709,41.4719322 C184.453709,44.3093315 186.086315,45.727381 189.350873,45.727381 L189.350873,46.3359524 L169.765493,46.3359524 L169.765493,45.727381 C173.029395,45.727381 174.661347,44.3093315 174.661347,41.4719322 L174.661347,19.5880678" id="Fill-9"></path>
        </g>
    </g>
</svg>