<?xml version="1.0" encoding="UTF-8" standalone="no"?>
<svg width="32px" height="32px" viewBox="0 0 32 32" version="1.1" xmlns="http://www.w3.org/2000/svg" xmlns:xlink="http://www.w3.org/1999/xlink">
    <!-- Generator: Sketch 40 (33762) - http://www.bohemiancoding.com/sketch -->
    <title>Group 4</title>
    <desc>Created with Sketch.</desc>
    <defs></defs>
    <g id="Page-1" stroke="none" stroke-width="1" fill="none" fill-rule="evenodd">
        <g id="1-Home-T5-Copy" transform="translate(-38.000000, -8.000000)">
            <g id="subheader">
                <g id="mediaset" transform="translate(37.000000, 7.000000)">
                    <g id="Group-4" transform="translate(0.044944, 0.707865)">
                        <path d="M32.8839551,16.3289888 C32.8839551,25.145618 25.7360899,32.2921348 16.9194607,32.2921348 C8.10292135,32.2921348 0.95505618,25.145618 0.95505618,16.3289888 C0.95505618,7.51244944 8.10292135,0.36458427 16.9194607,0.36458427 C25.7360899,0.36458427 32.8839551,7.51244944 32.8839551,16.3289888" id="Fill-1" fill="#21365B"></path>
                        <path d="M23.247191,19.8333438 C23.247191,21.3439238 24.4824002,22.521934 26.0679284,22.521934 C27.6519697,22.521934 28.9312118,21.3439238 28.9312118,19.8333438 C28.9312118,18.3179645 27.6519697,17.1011236 26.0679284,17.1011236 C24.4824002,17.1011236 23.247191,18.3179645 23.247191,19.8333438" id="Fill-4" fill="#FFFFFF"></path>
                        <polygon id="Fill-5" fill="#FFFFFF" points="17.1909425 10 19.7934596 10 20.3344355 22.2154208 17.9682093 22.2154208 17.6145735 13.9583325 13.3026642 22.2154208 12.1375646 22.2154208 10.1054168 13.7236031 7.46870275 22.2154208 5 22.2154208 8.75617956 10 11.4417301 10 13.3026642 17.6820447"></polygon>
                    </g>
                </g>
            </g>
        </g>
    </g>
</svg>